{"asset":{"generator":"Khronos Blender glTF 2.0 I/O","version":"2.0"},"extensionsUsed":["KHR_texture_transform"],"extensionsRequired":["KHR_texture_transform"],"scene":10,"scenes":[{"name":"CaesarRole","nodes":[2]},{"name":"Credits","nodes":[5]},{"name":"FascistParty","nodes":[8]},{"name":"FascistPolicy","nodes":[11]},{"name":"FascistRole","nodes":[14]},{"name":"Ja","nodes":[17]},{"name":"LiberalParty","nodes":[20]},{"name":"LiberalPolicy","nodes":[23]},{"name":"LiberalRole","nodes":[26]},{"name":"Nein","nodes":[29]},{"name":"Veto","nodes":[32]}],"nodes":[{"mesh":0,"name":"Back.006","scale":[0.7149999737739563,1,1]},{"mesh":1,"name":"Face.006","scale":[0.7149999737739563,1,1]},{"children":[0,1],"name":"CaesarRole","rotation":[0.7071068286895752,0,0,0.7071068286895752]},{"mesh":0,"name":"Back.010","scale":[0.7149999737739563,1,1]},{"mesh":2,"name":"Face.010","scale":[0.7149999737739563,1,1]},{"children":[3,4],"name":"Credits","rotation":[0.7071068286895752,0,0,0.7071068286895752]},{"mesh":0,"name":"Back.003","scale":[0.7149999737739563,1,1]},{"mesh":3,"name":"Face.003","scale":[0.7149999737739563,1,1]},{"children":[6,7],"name":"FascistParty","rotation":[0.7071068286895752,0,0,0.7071068286895752]},{"mesh":0,"name":"Back.009","scale":[0.7149999737739563,1,1]},{"mesh":4,"name":"Face.009","scale":[0.7149999737739563,1,1]},{"children":[9,10],"name":"FascistPolicy","rotation":[0.7071068286895752,0,0,0.7071068286895752]},{"mesh":0,"name":"Back.005","scale":[0.7149999737739563,1,1]},{"mesh":5,"name":"Face.005","scale":[0.7149999737739563,1,1]},{"children":[12,13],"name":"FascistRole","rotation":[0.7071068286895752,0,0,0.7071068286895752]},{"mesh":0,"name":"Back","scale":[0.7149999737739563,1,1]},{"mesh":6,"name":"Face.007","scale":[0.7149999737739563,1,1]},{"children":[15,16],"name":"Ja","rotation":[0.5,-0.5000000596046448,-0.5,0.4999999701976776]},{"mesh":0,"name":"Back.002","scale":[0.7149999737739563,1,1]},{"mesh":7,"name":"Face.002","scale":[0.7149999737739563,1,1]},{"children":[18,19],"name":"LiberalParty","rotation":[0.7071068286895752,0,0,0.7071068286895752]},{"mesh":0,"name":"Back.007","scale":[0.7149999737739563,1,1]},{"mesh":8,"name":"Face","scale":[0.7149999737739563,1,1]},{"children":[21,22],"name":"LiberalPolicy","rotation":[0.7071068286895752,0,0,0.7071068286895752]},{"mesh":0,"name":"Back.004","scale":[0.7149999737739563,1,1]},{"mesh":9,"name":"Face.004","scale":[0.7149999737739563,1,1]},{"children":[24,25],"name":"LiberalRole","rotation":[0.7071068286895752,0,0,0.7071068286895752]},{"mesh":0,"name":"Back.001","scale":[0.7149999737739563,1,1]},{"mesh":10,"name":"Face.001","scale":[0.7149999737739563,1,1]},{"children":[27,28],"name":"Nein","rotation":[0.5,-0.5000000596046448,-0.5,0.4999999701976776]},{"mesh":0,"name":"Back.008","scale":[0.7149999737739563,1,1]},{"mesh":11,"name":"Face.008","scale":[0.7149999737739563,1,1]},{"children":[30,31],"name":"Veto","rotation":[0.7071068286895752,0,0,0.7071068286895752]}],"materials":[{"name":"Back","pbrMetallicRoughness":{"baseColorTexture":{"extensions":{"KHR_texture_transform":{"offset":[0.020999999716877937,0.7310000061988831],"scale":[0.3540000021457672,0.24699999392032623]}},"index":0,"texCoord":0},"metallicFactor":0,"roughnessFactor":0.5}},{"name":"CaesarRole","pbrMetallicRoughness":{"baseColorTexture":{"extensions":{"KHR_texture_transform":{"offset":[0.7540000081062317,0.35499998927116394],"scale":[0.24199999868869781,0.3449999988079071]}},"index":0,"texCoord":0},"metallicFactor":0,"roughnessFactor":0.5}},{"name":"Credits","pbrMetallicRoughness":{"baseColorTexture":{"extensions":{"KHR_texture_transform":{"offset":[0.3970000147819519,0.7239999929443002],"scale":[0.36800000071525574,0.26100000739097595]}},"index":0,"texCoord":0},"metallicFactor":0,"roughnessFactor":0.5}},{"name":"FascistParty","pbrMetallicRoughness":{"baseColorTexture":{"extensions":{"KHR_texture_transform":{"offset":[0.2549999952316284,0.35499998927116394],"scale":[0.23999999463558197,0.3449999988079071]}},"index":0,"texCoord":0},"metallicFactor":0,"roughnessFactor":0.5}},{"name":"FascistPolicy","pbrMetallicRoughness":{"baseColorTexture":{"extensions":{"KHR_texture_transform":{"offset":[0.7540000081062317,0.17799997329711914],"scale":[0.24300000071525574,0.16200000047683716]}},"index":0,"texCoord":0},"metallicFactor":0,"roughnessFactor":0.5}},{"name":"FascistRole","pbrMetallicRoughness":{"baseColorTexture":{"extensions":{"KHR_texture_transform":{"offset":[0.5049999952316284,0.35499998927116394],"scale":[0.2409999966621399,0.3449999988079071]}},"index":0,"texCoord":0},"metallicFactor":0,"roughnessFactor":0.5}},{"name":"Ja","pbrMetallicRoughness":{"baseColorTexture":{"extensions":{"KHR_texture_transform":{"offset":[0.004999999888241291,0.008000016212463379],"scale":[0.23899999260902405,0.33899998664855957]}},"index":0,"texCoord":0},"metallicFactor":0,"roughnessFactor":0.5}},{"name":"LiberalParty","pbrMetallicRoughness":{"baseColorTexture":{"extensions":{"KHR_texture_transform":{"offset":[0.2549999952316284,0.004000037908554077],"scale":[0.23999999463558197,0.34599998593330383]}},"index":0,"texCoord":0},"metallicFactor":0,"roughnessFactor":0.5}},{"name":"LiberalPolicy","pbrMetallicRoughness":{"baseColorTexture":{"extensions":{"KHR_texture_transform":{"offset":[0.7540000081062317,0.0040000081062316895],"scale":[0.24300000071525574,0.16200000047683716]}},"index":0,"texCoord":0},"metallicFactor":0,"roughnessFactor":0.5}},{"name":"Nein","pbrMetallicRoughness":{"baseColorTexture":{"extensions":{"KHR_texture_transform":{"offset":[0.006000000052154064,0.3580000102519989],"scale":[0.2370000034570694,0.3400000035762787]}},"index":0,"texCoord":0},"metallicFactor":0,"roughnessFactor":0.5}}],"meshes":[{"name":"CardBack","primitives":[{"attributes":{"POSITION":0,"NORMAL":1,"TEXCOORD_0":2},"indices":3,"material":0}]},{"name":"CardVertical.008","primitives":[{"attributes":{"POSITION":4,"NORMAL":5,"TEXCOORD_0":6},"indices":7,"material":1}]},{"name":"CardVertical.001","primitives":[{"attributes":{"POSITION":8,"NORMAL":9,"TEXCOORD_0":10},"indices":11,"material":2}]},{"name":"CardVertical.005","primitives":[{"attributes":{"POSITION":12,"NORMAL":13,"TEXCOORD_0":14},"indices":15,"material":3}]},{"name":"CardVertical.011","primitives":[{"attributes":{"POSITION":16,"NORMAL":17,"TEXCOORD_0":18},"indices":19,"material":4}]},{"name":"CardVertical.007","primitives":[{"attributes":{"POSITION":20,"NORMAL":21,"TEXCOORD_0":22},"indices":23,"material":5}]},{"name":"CardVertical","primitives":[{"attributes":{"POSITION":24,"NORMAL":25,"TEXCOORD_0":26},"indices":27,"material":6}]},{"name":"CardVertical.004","primitives":[{"attributes":{"POSITION":28,"NORMAL":29,"TEXCOORD_0":30},"indices":31,"material":7}]},{"name":"CardVertical.009","primitives":[{"attributes":{"POSITION":32,"NORMAL":33,"TEXCOORD_0":34},"indices":35,"material":8}]},{"name":"CardVertical.006","primitives":[{"attributes":{"POSITION":36,"NORMAL":37,"TEXCOORD_0":38},"indices":39}]},{"name":"CardVertical.003","primitives":[{"attributes":{"POSITION":40,"NORMAL":41,"TEXCOORD_0":42},"indices":43,"material":9}]},{"name":"CardVertical.010","primitives":[{"attributes":{"POSITION":44,"NORMAL":45,"TEXCOORD_0":46},"indices":47}]}],"textures":[{"source":0}],"images":[{"mimeType":"image/jpeg","name":"cards.jpg","uri":"../img/caesar/cards.jpg"}],"accessors":[{"bufferView":0,"componentType":5126,"count":4,"max":[0.5,-0.004999945871531963,0.4999997615814209],"min":[-0.5,-0.005000053904950619,-0.4999997615814209],"type":"VEC3"},{"bufferView":1,"componentType":5126,"count":4,"type":"VEC3"},{"bufferView":2,"componentType":5126,"count":4,"type":"VEC2"},{"bufferView":3,"componentType":5123,"count":6,"type":"SCALAR"},{"bufferView":4,"componentType":5126,"count":4,"max":[0.5,0.004999999888241291,0.4999997615814209],"min":[-0.5,0.004999999888241291,-0.4999997615814209],"type":"VEC3"},{"bufferView":5,"componentType":5126,"count":4,"type":"VEC3"},{"bufferView":6,"componentType":5126,"count":4,"type":"VEC2"},{"bufferView":7,"componentType":5123,"count":6,"type":"SCALAR"},{"bufferView":8,"componentType":5126,"count":4,"max":[0.5,0.004999999888241291,0.4999997615814209],"min":[-0.5,0.004999999888241291,-0.4999997615814209],"type":"VEC3"},{"bufferView":9,"componentType":5126,"count":4,"type":"VEC3"},{"bufferView":10,"componentType":5126,"count":4,"type":"VEC2"},{"bufferView":11,"componentType":5123,"count":6,"type":"SCALAR"},{"bufferView":12,"componentType":5126,"count":4,"max":[0.5,0.004999999888241291,0.4999997615814209],"min":[-0.5,0.004999999888241291,-0.4999997615814209],"type":"VEC3"},{"bufferView":13,"componentType":5126,"count":4,"type":"VEC3"},{"bufferView":14,"componentType":5126,"count":4,"type":"VEC2"},{"bufferView":15,"componentType":5123,"count":6,"type":"SCALAR"},{"bufferView":16,"componentType":5126,"count":4,"max":[0.5,0.004999999888241291,0.4999997615814209],"min":[-0.5,0.004999999888241291,-0.4999997615814209],"type":"VEC3"},{"bufferView":17,"componentType":5126,"count":4,"type":"VEC3"},{"bufferView":18,"componentType":5126,"count":4,"type":"VEC2"},{"bufferView":19,"componentType":5123,"count":6,"type":"SCALAR"},{"bufferView":20,"componentType":5126,"count":4,"max":[0.5,0.004999999888241291,0.4999997615814209],"min":[-0.5,0.004999999888241291,-0.4999997615814209],"type":"VEC3"},{"bufferView":21,"componentType":5126,"count":4,"type":"VEC3"},{"bufferView":22,"componentType":5126,"count":4,"type":"VEC2"},{"bufferView":23,"componentType":5123,"count":6,"type":"SCALAR"},{"bufferView":24,"componentType":5126,"count":4,"max":[0.5,0.004999999888241291,0.4999997615814209],"min":[-0.5,0.004999999888241291,-0.4999997615814209],"type":"VEC3"},{"bufferView":25,"componentType":5126,"count":4,"type":"VEC3"},{"bufferView":26,"componentType":5126,"count":4,"type":"VEC2"},{"bufferView":27,"componentType":5123,"count":6,"type":"SCALAR"},{"bufferView":28,"componentType":5126,"count":4,"max":[0.5,0.004999999888241291,0.4999997615814209],"min":[-0.5,0.004999999888241291,-0.4999997615814209],"type":"VEC3"},{"bufferView":29,"componentType":5126,"count":4,"type":"VEC3"},{"bufferView":30,"componentType":5126,"count":4,"type":"VEC2"},{"bufferView":31,"componentType":5123,"count":6,"type":"SCALAR"},{"bufferView":32,"componentType":5126,"count":4,"max":[0.5,0.004999999888241291,0.4999997615814209],"min":[-0.5,0.004999999888241291,-0.4999997615814209],"type":"VEC3"},{"bufferView":33,"componentType":5126,"count":4,"type":"VEC3"},{"bufferView":34,"componentType":5126,"count":4,"type":"VEC2"},{"bufferView":35,"componentType":5123,"count":6,"type":"SCALAR"},{"bufferView":36,"componentType":5126,"count":4,"max":[0.5,0.004999999888241291,0.4999997615814209],"min":[-0.5,0.004999999888241291,-0.4999997615814209],"type":"VEC3"},{"bufferView":37,"componentType":5126,"count":4,"type":"VEC3"},{"bufferView":38,"componentType":5126,"count":4,"type":"VEC2"},{"bufferView":39,"componentType":5123,"count":6,"type":"SCALAR"},{"bufferView":40,"componentType":5126,"count":4,"max":[0.5,0.004999999888241291,0.4999997615814209],"min":[-0.5,0.004999999888241291,-0.4999997615814209],"type":"VEC3"},{"bufferView":41,"componentType":5126,"count":4,"type":"VEC3"},{"bufferView":42,"componentType":5126,"count":4,"type":"VEC2"},{"bufferView":43,"componentType":5123,"count":6,"type":"SCALAR"},{"bufferView":44,"componentType":5126,"count":4,"max":[0.5,0.004999999888241291,0.4999997615814209],"min":[-0.5,0.004999999888241291,-0.4999997615814209],"type":"VEC3"},{"bufferView":45,"componentType":5126,"count":4,"type":"VEC3"},{"bufferView":46,"componentType":5126,"count":4,"type":"VEC2"},{"bufferView":47,"componentType":5123,"count":6,"type":"SCALAR"}],"bufferViews":[{"buffer":0,"byteLength":48,"byteOffset":0},{"buffer":0,"byteLength":48,"byteOffset":48},{"buffer":0,"byteLength":32,"byteOffset":96},{"buffer":0,"byteLength":12,"byteOffset":128},{"buffer":0,"byteLength":48,"byteOffset":140},{"buffer":0,"byteLength":48,"byteOffset":188},{"buffer":0,"byteLength":32,"byteOffset":236},{"buffer":0,"byteLength":12,"byteOffset":268},{"buffer":0,"byteLength":48,"byteOffset":280},{"buffer":0,"byteLength":48,"byteOffset":328},{"buffer":0,"byteLength":32,"byteOffset":376},{"buffer":0,"byteLength":12,"byteOffset":408},{"buffer":0,"byteLength":48,"byteOffset":420},{"buffer":0,"byteLength":48,"byteOffset":468},{"buffer":0,"byteLength":32,"byteOffset":516},{"buffer":0,"byteLength":12,"byteOffset":548},{"buffer":0,"byteLength":48,"byteOffset":560},{"buffer":0,"byteLength":48,"byteOffset":608},{"buffer":0,"byteLength":32,"byteOffset":656},{"buffer":0,"byteLength":12,"byteOffset":688},{"buffer":0,"byteLength":48,"byteOffset":700},{"buffer":0,"byteLength":48,"byteOffset":748},{"buffer":0,"byteLength":32,"byteOffset":796},{"buffer":0,"byteLength":12,"byteOffset":828},{"buffer":0,"byteLength":48,"byteOffset":840},{"buffer":0,"byteLength":48,"byteOffset":888},{"buffer":0,"byteLength":32,"byteOffset":936},{"buffer":0,"byteLength":12,"byteOffset":968},{"buffer":0,"byteLength":48,"byteOffset":980},{"buffer":0,"byteLength":48,"byteOffset":1028},{"buffer":0,"byteLength":32,"byteOffset":1076},{"buffer":0,"byteLength":12,"byteOffset":1108},{"buffer":0,"byteLength":48,"byteOffset":1120},{"buffer":0,"byteLength":48,"byteOffset":1168},{"buffer":0,"byteLength":32,"byteOffset":1216},{"buffer":0,"byteLength":12,"byteOffset":1248},{"buffer":0,"byteLength":48,"byteOffset":1260},{"buffer":0,"byteLength":48,"byteOffset":1308},{"buffer":0,"byteLength":32,"byteOffset":1356},{"buffer":0,"byteLength":12,"byteOffset":1388},{"buffer":0,"byteLength":48,"byteOffset":1400},{"buffer":0,"byteLength":48,"byteOffset":1448},{"buffer":0,"byteLength":32,"byteOffset":1496},{"buffer":0,"byteLength":12,"byteOffset":1528},{"buffer":0,"byteLength":48,"byteOffset":1540},{"buffer":0,"byteLength":48,"byteOffset":1588},{"buffer":0,"byteLength":32,"byteOffset":1636},{"buffer":0,"byteLength":12,"byteOffset":1668}],"buffers":[{"byteLength":1680,"uri":"data:application/octet-stream;base64,"}]}