{"asset":{"generator":"Khronos Blender glTF 2.0 I/O","version":"2.0"},"scene":0,"scenes":[{"name":"Scene","nodes":[5,12,33,34]}],"nodes":[{"name":"Liberal0","translation":[0.6899999976158142,0,0]},{"name":"Liberal1","translation":[0.3449999988079071,0,0]},{"name":"Liberal2","translation":[0.0020000000949949026,0,0]},{"name":"Liberal3","translation":[-0.3400000035762787,0,0]},{"name":"Liberal4","translation":[-0.6899999976158142,0,0]},{"children":[0,1,2,3,4],"name":"LiberalSpots","translation":[0,0.0010000000474974513,-0.41999998688697815]},{"name":"Fascist0","translation":[-0.8600000143051147,0,0]},{"name":"Fascist1","translation":[-0.5149999856948853,0,0]},{"name":"Fascist2","translation":[-0.17000000178813934,0,0]},{"name":"Fascist3","translation":[0.17000000178813934,0,0]},{"name":"Fascist4","translation":[0.5180000066757202,0,0]},{"name":"Fascist5","translation":[0.8700000047683716,0,0]},{"children":[6,7,8,9,10,11],"name":"FascistSpots","translation":[0,0.0010000000474974513,0.42500001192092896]},{"mesh":0,"name":"Nametag0","rotation":[0,0.7071068286895752,0,0.7071067094802856],"scale":[1.25,1.25,1.25],"translation":[0,-0.6349999904632568,-0.2200000286102295]},{"children":[13],"name":"Seat0","translation":[0.8330000042915344,0.6499999761581421,1.0499999523162842]},{"mesh":0,"name":"Nametag1","rotation":[0,0.7071068286895752,0,0.7071067094802856],"scale":[1.25,1.25,1.25],"translation":[0,-0.6349999904632568,-0.2200000286102295]},{"children":[15],"name":"Seat1","translation":[0,0.6499999761581421,1.0499999523162842]},{"mesh":0,"name":"Nametag2","rotation":[0,0.7071068286895752,0,0.7071067094802856],"scale":[1.25,1.25,1.25],"translation":[0,-0.6349999904632568,-0.2200000286102295]},{"children":[17],"name":"Seat2","translation":[-0.8330000042915344,0.6499999761581421,1.0499999523162842]},{"mesh":0,"name":"Nametag3","rotation":[0,0.7071068286895752,0,0.7071067094802856],"scale":[1.25,1.25,1.25],"translation":[0,-0.6349999904632568,-0.2200000286102295]},{"children":[19],"name":"Seat3","rotation":[0,-0.7071067094802856,0,0.7071068286895752],"translation":[-1.4249999523162842,0.6499999761581421,0.43700000643730164]},{"mesh":0,"name":"Nametag4","rotation":[0,0.7071068286895752,0,0.7071067094802856],"scale":[1.25,1.25,1.25],"translation":[0,-0.6349999904632568,-0.2200000286102295]},{"children":[21],"name":"Seat4","rotation":[0,-0.7071067094802856,0,0.7071068286895752],"translation":[-1.4249999523162842,0.6499999761581421,-0.43700000643730164]},{"mesh":0,"name":"Nametag5","rotation":[0,0.7071068286895752,0,0.7071067094802856],"scale":[1.25,1.25,1.25],"translation":[0,-0.6349999904632568,-0.22000008821487427]},{"children":[23],"name":"Seat5","rotation":[0,1,0,-4.371138828673793e-8],"translation":[-0.8330000042915344,0.6499999761581421,-1.0499999523162842]},{"mesh":0,"name":"Nametag6","rotation":[0,0.7071068286895752,0,0.7071067094802856],"scale":[1.25,1.25,1.25],"translation":[0,-0.6349999904632568,-0.2200000286102295]},{"children":[25],"name":"Seat6","rotation":[0,1,0,-4.371138828673793e-8],"translation":[0,0.6499999761581421,-1.0500000715255737]},{"mesh":0,"name":"Nametag7","rotation":[0,0.7071068286895752,0,0.7071067094802856],"scale":[1.25,1.25,1.25],"translation":[0,-0.6349999904632568,-0.21999996900558472]},{"children":[27],"name":"Seat7","rotation":[0,1,0,-4.371138828673793e-8],"translation":[0.8330000042915344,0.6499999761581421,-1.0499999523162842]},{"mesh":0,"name":"Nametag8","rotation":[0,0.7071068286895752,0,0.7071067094802856],"scale":[1.25,1.25,1.25],"translation":[0,-0.6349999904632568,-0.2200000286102295]},{"children":[29],"name":"Seat8","rotation":[0,0.7071068286895752,0,0.7071067690849304],"translation":[1.4249999523162842,0.6499999761581421,-0.43700000643730164]},{"mesh":0,"name":"Nametag9","rotation":[0,0.7071068286895752,0,0.7071067094802856],"scale":[1.25,1.25,1.25],"translation":[0,-0.6349999904632568,-0.2200000286102295]},{"children":[31],"name":"Seat9","rotation":[0,0.7071068286895752,0,0.7071067690849304],"translation":[1.4249999523162842,0.6499999761581421,0.43700000643730164]},{"children":[14,16,18,20,22,24,26,28,30,32],"name":"Seats","translation":[0,0.017999999225139618,0]},{"mesh":1,"name":"Table","scale":[1.25,1.25,1.25]}],"materials":[{"name":"Nameplate","pbrMetallicRoughness":{"baseColorFactor":[0.014443841762840748,0.014443840831518173,0.014443840831518173,1],"metallicFactor":0,"roughnessFactor":0}},{"name":"Table","pbrMetallicRoughness":{"baseColorFactor":[0.6618543863296509,0.6350324749946594,0.4230514168739319,1],"baseColorTexture":{"index":0,"texCoord":0},"metallicFactor":0,"roughnessFactor":0.5}}],"meshes":[{"name":"Nameplate","primitives":[{"attributes":{"POSITION":0,"NORMAL":1,"TEXCOORD_0":2},"indices":3,"material":0}]},{"name":"Table","primitives":[{"attributes":{"POSITION":4,"NORMAL":5,"TEXCOORD_0":6,"TEXCOORD_1":7},"indices":8,"material":1}]}],"textures":[{"name":"BoardSmall","source":0},{"name":"BoardMedium","source":1},{"name":"BoardLarge","source":2}],"images":[{"mimeType":"image/jpeg","name":"BoardSmall","uri":"../img/caesar/board-small.jpg"},{"mimeType":"image/jpeg","name":"BoardMedium","uri":"../img/caesar/board-medium.jpg"},{"mimeType":"image/jpeg","name":"BoardLarge","uri":"../img/caesar/board-large.jpg"}],"accessors":[{"bufferView":0,"componentType":5126,"count":24,"max":[0.025980709120631218,0.02999996952712536,0.125],"min":[-0.025980709120631218,-0.014999980106949806,-0.125],"type":"VEC3"},{"bufferView":1,"componentType":5126,"count":24,"type":"VEC3"},{"bufferView":2,"componentType":5126,"count":24,"type":"VEC2"},{"bufferView":3,"componentType":5123,"count":24,"type":"SCALAR"},{"bufferView":4,"componentType":5126,"count":136,"max":[1.0000001192092896,2.9802322387695312e-8,0.6980000734329224],"min":[-0.9999999403953552,-1.0000001192092896,-0.697999894618988],"type":"VEC3"},{"bufferView":5,"componentType":5126,"count":136,"type":"VEC3"},{"bufferView":6,"componentType":5126,"count":136,"type":"VEC2"},{"bufferView":7,"componentType":5126,"count":136,"type":"VEC2"},{"bufferView":8,"componentType":5123,"count":258,"type":"SCALAR"}],"bufferViews":[{"buffer":0,"byteLength":288,"byteOffset":0},{"buffer":0,"byteLength":288,"byteOffset":288},{"buffer":0,"byteLength":192,"byteOffset":576},{"buffer":0,"byteLength":48,"byteOffset":768},{"buffer":0,"byteLength":1632,"byteOffset":816},{"buffer":0,"byteLength":1632,"byteOffset":2448},{"buffer":0,"byteLength":1088,"byteOffset":4080},{"buffer":0,"byteLength":1088,"byteOffset":5168},{"buffer":0,"byteLength":516,"byteOffset":6256}],"buffers":[{"byteLength":6772,"uri":"data:application/octet-stream;base64,"}]}